<svg width="24" height="17" viewBox="0 0 24 17" fill="none" xmlns="http://www.w3.org/2000/svg">
<path d="M22.9024 3.21781C22.6407 2.2324 21.8696 1.45631 20.8906 1.19294C19.116 0.714355 12.0001 0.714355 12.0001 0.714355C12.0001 0.714355 4.88428 0.714355 3.10965 1.19294C2.13061 1.45636 1.35952 2.2324 1.09782 3.21781C0.622314 5.00394 0.622314 8.73052 0.622314 8.73052C0.622314 8.73052 0.622314 12.4571 1.09782 14.2432C1.35952 15.2286 2.13061 15.9724 3.10965 16.2358C4.88428 16.7144 12.0001 16.7144 12.0001 16.7144C12.0001 16.7144 19.116 16.7144 20.8906 16.2358C21.8696 15.9724 22.6407 15.2286 22.9024 14.2432C23.3779 12.4571 23.3779 8.73052 23.3779 8.73052C23.3779 8.73052 23.3779 5.00394 22.9024 3.21781ZM9.67283 12.114V5.34706L15.6203 8.73061L9.67283 12.114Z" fill="#111827"/>
</svg>
